<?xml version="1.0" encoding="UTF-8" standalone="no"?>
<!-- Created with Inkscape (http://www.inkscape.org/) -->

<svg
   width="120.25025mm"
   height="46.796185mm"
   viewBox="0 0 120.25025 46.796185"
   version="1.1"
   id="svg1"
   xml:space="preserve"
   inkscape:version="1.4.2 (f4327f4, 2025-05-13)"
   sodipodi:docname="logo-footer-version.svg"
   xmlns:inkscape="http://www.inkscape.org/namespaces/inkscape"
   xmlns:sodipodi="http://sodipodi.sourceforge.net/DTD/sodipodi-0.dtd"
   xmlns="http://www.w3.org/2000/svg"
   xmlns:svg="http://www.w3.org/2000/svg"><sodipodi:namedview
     id="namedview1"
     pagecolor="#ffffff"
     bordercolor="#000000"
     borderopacity="0.25"
     inkscape:showpageshadow="2"
     inkscape:pageopacity="0.0"
     inkscape:pagecheckerboard="0"
     inkscape:deskcolor="#d1d1d1"
     inkscape:document-units="mm"
     inkscape:zoom="1.1019851"
     inkscape:cx="26.316145"
     inkscape:cy="6.8058995"
     inkscape:window-width="3440"
     inkscape:window-height="1417"
     inkscape:window-x="1912"
     inkscape:window-y="-8"
     inkscape:window-maximized="1"
     inkscape:current-layer="layer1" /><defs
     id="defs1"><style
       id="style1">
      .cls-1 {
        fill: #0a3641;
        stroke-width: 0px;
      }
    </style></defs><g
     inkscape:label="Layer 1"
     inkscape:groupmode="layer"
     id="layer1"
     transform="translate(-79.503679,-105.01752)"><path
       id="path3"
       class="cls-1"
       d="m 131.95697,105.02296 h 0.41109 c 0.50593,0.31896 1.09713,0.43994 1.64295,0.66404 0.71218,0.29148 1.39411,0.62694 2.02928,1.04353 0.32447,0.21172 0.65856,0.40971 0.98853,0.60494 0.27222,0.16227 0.4427,0.41519 0.70668,0.58843 0.31208,0.20348 0.66817,0.28047 0.97339,0.47982 0.45371,0.29972 0.81666,0.6943 1.19887,1.07101 0.15681,0.15399 0.30247,0.3066 0.52107,0.39459 0.36022,0.14719 0.7053,0.33271 0.91016,0.62281 0.53345,0.0797 0.73829,-0.60769 1.22499,-0.38496 0.11006,-0.1099 0.1911,-0.1911 0.29146,-0.29147 0.16095,0 0.40284,-0.0756 0.50871,0.0133 0.34646,0.29011 0.64342,0.0358 0.90052,-0.0756 0.54308,-0.23647 1.06277,-0.53756 1.55909,-0.8634 0.37809,-0.24747 0.77404,-0.44958 1.18651,-0.61182 0.39183,-0.15531 0.75204,-0.41932 1.20575,-0.40008 0.0481,10e-4 0.099,-0.081 0.15945,-0.13476 0.75205,0.39185 1.56047,0.64757 2.33176,0.98853 0.49083,0.2186 0.98302,0.48395 1.30474,0.92665 0.43583,0.1031 0.87304,0.15531 1.26349,0.31485 0.39596,0.16228 0.81117,0.27497 1.21263,0.36571 0.39733,0.0893 0.75205,0.34371 1.18236,0.30659 0.1457,-0.0116 0.29974,0.0907 0.41247,0.14985 0.51969,0.26809 1.07513,0.3987 1.63333,0.52244 0.13343,0.0288 0.28047,0.10857 0.33958,0.16095 0.33822,0.30109 0.75617,0.39733 1.15901,0.52244 0.1746,0.0535 0.2296,0.21447 0.36572,0.28045 0.42207,0.20211 0.78778,0.50458 1.27586,0.63657 0.15946,-0.13476 0.34921,-0.11553 0.6063,0 1.23187,0.55682 2.46374,1.1205 3.653,1.75982 0.91977,0.49219 1.82993,1.01601 2.68372,1.60996 0.32033,0.22272 0.63792,0.50319 0.91151,0.82078 0.24199,0.28047 0.59946,0.48395 0.94317,0.64343 0.43719,0.20485 0.91289,0.32996 1.3721,0.48945 0.45783,0.15946 0.93765,0.28048 1.3721,0.48807 0.69431,0.33272 1.38586,0.66269 1.97843,1.19063 0.5293,0.47157 1.03388,0.97615 1.46283,1.51921 0.8098,1.02564 1.7172,1.95093 2.6356,2.87208 0.77955,0.78092 1.92206,1.44221 3.16492,1.95092 0.93491,0.38221 1.79556,0.89777 2.57648,1.56734 0.82904,0.71216 1.75569,1.30885 2.73596,1.81205 0.12929,0.066 0.2791,-0.0454 0.37671,0.0893 -0.51969,0.12647 -1.18513,0.0646 -1.67457,-0.0116 -0.45095,-0.0701 -0.87441,-0.22272 -1.28962,-0.3712 -0.40283,-0.14438 -0.84003,-0.12647 -1.22912,-0.34234 -0.1911,-0.10591 -0.48944,0.0618 -0.68879,-0.15116 -0.54308,0.0577 -0.87303,-0.33548 -1.25525,-0.60357 -0.60356,-0.42483 -1.20162,-0.86066 -1.78319,-1.31574 -0.62005,-0.48669 -1.3226,-0.89228 -1.71582,-1.62233 -0.0206,-0.0384 -0.0618,-0.066 -0.0963,-0.0976 -0.87991,-0.81393 -1.56595,-1.81482 -2.47198,-2.60398 -0.40696,-0.35609 -0.81942,-0.7053 -1.32673,-0.92803 -0.31898,-0.1389 -0.65306,-0.18836 -0.9789,-0.2846 -0.71356,-0.21311 -1.34737,-0.60769 -2.01004,-0.93077 -0.73418,-0.35747 -1.40098,-0.83592 -2.04991,-1.33774 -0.65168,-0.5032 -1.32675,-0.97753 -2.00042,-1.45185 -0.17186,-0.121 -0.36571,-0.2516 -0.56369,-0.28458 -0.62968,-0.1031 -1.00777,-0.57882 -1.46285,-0.93491 -0.24334,-0.18836 -0.45233,-0.40971 -0.71491,-0.58707 -0.47433,-0.32309 -1.00227,-0.48256 -1.54673,-0.56231 -0.25983,-0.0371 -0.48669,-0.22685 -0.76441,-0.15266 -0.0454,-0.0166 -0.0922,-0.13476 -0.13757,0 0.44409,0.52795 0.94178,0.99402 1.47796,1.43673 0.85792,0.70942 1.7612,1.34323 2.67411,1.97291 0.2516,0.17323 0.53893,0.25435 0.78365,0.42483 0.0317,0.12233 0.008,0.1911 -0.13741,0.13741 -0.43171,0.0247 -0.77266,-0.23921 -1.13838,-0.39595 -0.99539,-0.42758 -1.97016,-0.90191 -2.86381,-1.52334 -0.2516,-0.1746 -0.49084,-0.36297 -0.73143,-0.55131 -0.85516,-0.6723 -1.59759,-1.46423 -2.36751,-2.22589 -0.25022,-0.24747 -0.49769,-0.44682 -0.87991,-0.53345 -0.35471,-0.0797 -0.69017,-0.30247 -1.04488,-0.44545 -0.91841,-0.37396 -1.81206,-0.80842 -2.72496,-1.19613 -0.93628,-0.39733 -1.83406,-0.87303 -2.73459,-1.3391 -0.21036,-0.10857 -0.41521,-0.20761 -0.60906,-0.35197 -0.62831,-0.46882 -1.32398,-0.74791 -2.14478,-0.57881 -0.0509,0.0535 -0.11272,0.11818 -0.16911,0.17736 -0.022,0.28185 0.11686,0.51418 0.21449,0.74241 0.28321,0.66407 0.23096,1.30199 -0.033,1.94681 -0.0234,0.0592 -0.0166,0.13326 -0.0481,0.18559 -0.32309,0.54308 -0.29835,1.14114 -0.25848,1.77906 0.0922,0.29148 0.35746,0.50045 0.58982,0.73556 0.52794,0.53069 1.06138,1.06002 1.58382,1.58246 -0.10857,0.23509 -0.33821,0.19522 -0.54306,0.25435 0.01,0.52657 0.0756,1.06688 -0.29559,1.48485 0.0976,0.17185 0.2241,0.099 0.35884,0.12514 0.14304,-0.14305 0.29834,-0.29698 0.43994,-0.43859 0.23511,0.0673 0.36984,0.22273 0.4427,0.36433 0.44409,0.85792 0.97066,1.67872 1.26075,2.67823 -0.28323,-0.0247 -0.47708,-0.14304 -0.6448,-0.30109 -0.49359,-0.46746 -1.06415,-0.83179 -1.63471,-1.20988 h -0.6723 c -0.20761,0.088 -0.18424,0.34371 -0.33822,0.4647 -0.15946,0.76442 0.39733,1.15763 0.86066,1.5481 0.55957,0.47019 1.20162,0.84278 1.79556,1.27448 0.29834,0.21722 0.60218,0.44545 0.91703,0.60494 0.55132,0.2791 0.80978,0.75755 0.91427,1.26486 0.15117,0.7383 0.3396,1.46973 0.45783,2.21765 0.10592,0.65856 0.29697,1.32398 0.60219,1.93442 0.0688,0.13741 0.0605,0.24747 0.0234,0.39733 -0.0811,0.005 -0.16772,0.0116 -0.27222,0.0192 -0.3987,-0.2791 -0.64067,-0.70805 -0.92115,-1.09576 -0.72592,-1.00502 -1.42847,-2.0279 -2.37301,-2.85008 -0.34646,-0.30109 -0.73966,-0.54444 -1.11224,-0.80428 -0.59944,-0.41659 -1.05314,-0.94453 -1.44223,-1.53159 -0.11139,-0.16774 -0.25573,-0.27497 -0.35059,-0.44271 -0.0756,0.0756 -0.12515,0.12515 -0.2186,0.21861 0.066,0.50045 -0.066,1.04214 0.12233,1.60033 0.11685,0.34784 0.022,0.76441 0.022,1.15351 -0.17598,-0.0247 -0.21997,-0.12233 -0.28733,-0.26947 -0.19662,-0.42072 -0.40972,-0.82904 -0.57471,-1.269 -0.16227,-0.43034 -0.50868,-0.79054 -0.75067,-1.19475 -0.24609,-0.40971 -0.58567,-0.73142 -0.92802,-1.05313 -0.58981,-0.55407 -1.09989,-1.18926 -1.77631,-1.65946 -0.45508,-0.31621 -0.7493,-0.80016 -1.04076,-1.35285 0.13194,-0.51558 -0.0467,-1.08752 -0.14984,-1.64572 -0.11404,-0.61455 -0.38635,-1.20299 -0.61457,-1.79555 -0.15531,-0.40146 -0.28596,-0.79466 -0.34371,-1.23325 -0.0922,-0.70117 -0.33135,-1.35423 -0.85241,-1.9083 -0.59944,-0.63655 -1.33774,-1.05589 -2.0719,-1.47246 -0.47845,-0.27222 -0.93904,-0.54032 -1.324,-0.93629 -0.46194,-0.47294 -0.94039,-0.93351 -1.40373,-1.40648 -0.75891,-0.77404 -1.65532,-1.40372 -2.36336,-2.23001 -0.11139,-0.13061 -0.23511,-0.10989 -0.38084,-0.11553 -0.20623,0.38084 -0.44134,0.75755 -0.6187,1.15901 -0.29834,0.67505 -0.72867,1.20299 -1.3446,1.63333 -0.65718,0.45781 -1.06688,1.11224 -1.00364,1.97291 0.008,0.10724 0.0688,0.15813 0.12929,0.22272 -0.15117,0.25848 -0.44683,0.46882 -0.88404,0.63382 -0.18559,0.31896 -0.39733,0.63792 -0.56506,0.98027 -0.41659,0.85654 -0.66956,1.77769 -0.98715,2.67271 -0.12233,0.34509 -0.0206,0.76856 -0.0206,1.15626 v 0.57881 c -0.0825,0.0907 -0.14305,0.15813 -0.20761,0.23098 -0.3932,-0.39184 -0.4427,-0.93078 -0.59668,-1.40648 -0.1636,-0.50182 -0.2461,-1.03389 -0.40972,-1.54259 -0.0907,-0.28184 0.0673,-0.62694 -0.24609,-0.84003 -1.16725,1.43946 -2.36887,2.91881 -3.56776,4.39815 0.33547,0.78505 0.72455,1.57697 0.64756,2.4995 -0.026,0.31758 0.0179,0.64067 -0.008,0.95827 -0.0756,0.89503 -0.40008,1.67733 -1.08339,2.29325 -0.10442,0.0935 -0.28185,0.0275 -0.33547,0.19112 -0.54857,0.0963 -0.98163,-0.14852 -1.35148,-0.50182 -0.59393,-0.56645 -1.19612,-1.13289 -1.73643,-1.75021 -0.29836,-0.34095 -0.58707,-0.69842 -0.85379,-1.07376 -0.31347,-0.43994 -0.75892,-0.7864 -1.14939,-1.1755 h -0.92803 c -1.071,0.5857 -2.02515,1.29649 -2.93669,2.07466 -0.72042,0.61457 -1.44634,1.22363 -2.20664,1.78869 -0.85515,0.63381 -1.71168,1.27036 -2.5531,1.91793 -0.69155,0.53206 -1.45323,0.93214 -2.16401,1.41884 -0.32722,0.2241 -0.74381,0.24335 -1.14665,0.18562 -0.0646,-0.0647 -0.12928,-0.12929 -0.18972,-0.18974 -0.0839,-0.6998 0.26259,-1.36798 0.10177,-2.08979 -0.61319,-0.21447 -1.13288,0.14023 -1.59621,0.44547 -0.94452,0.62143 -1.86154,1.28685 -2.74558,1.99903 -0.54032,0.43446 -1.092999,0.8689 -1.638829,1.29924 -0.274971,0.21722 -0.617304,0.0769 -0.833166,0.32446 -0.776793,0.0797 -1.504092,0.42896 -2.297377,0.40971 -0.250223,0.23784 -0.609066,0.0385 -0.871654,0.2131 -0.270843,0.18011 -0.622807,-0.0852 -0.890915,0.18286 -0.06879,0.0688 -0.262589,0.0166 -0.397331,0.0166 h -2.128273 c 0.58707,-0.26534 0.823535,-0.76716 1.340491,-0.86615 0.639299,-0.51145 1.3996,-0.83454 2.067773,-1.30749 0.265357,-0.18834 0.482578,-0.42758 0.767179,-0.60494 0.54719,-0.34233 1.099882,-0.6558 1.713058,-0.83727 0.298342,-0.088 0.56645,-0.23924 0.785048,-0.41109 0.459207,-0.36708 0.967891,-0.66406 1.490346,-0.88266 0.70391,-0.29422 1.14938,-0.80154 1.57008,-1.38586 0.28734,-0.39871 0.49082,-0.88952 1.00502,-1.07789 0.081,-0.0302 0.17598,-0.0206 0.30935,-0.033 0.57331,-0.72867 1.46146,-1.0944 2.22313,-1.63333 0.32859,-0.23236 0.75067,-0.34921 0.90053,-0.79604 0.0385,-0.11685 0.1691,-0.2296 0.28598,-0.28597 0.18834,-0.0922 0.3987,-0.13609 0.60081,-0.20211 -0.0116,-0.32859 0.29834,-0.25297 0.45781,-0.35747 0.8208,-0.53069 1.75707,-0.85103 2.57924,-1.37897 0.2406,-0.15399 0.44958,-0.35608 0.66543,-0.54444 0.36021,-0.31896 0.83867,-0.40696 1.23187,-0.6723 0.5362,-0.36297 1.09988,-0.68606 1.61957,-1.10676 h 0.37809 c 0.10724,-0.0948 0.19249,-0.2241 0.31072,-0.2681 0.48396,-0.17873 0.83042,-0.54583 1.225,-0.84692 0.20898,-0.15946 0.39045,-0.38357 0.62555,-0.47157 0.76581,-0.29146 1.37898,-0.84141 2.11591,-1.17688 0.7493,-0.34233 1.38584,-0.86477 2.04991,-1.34185 0.37671,-0.27086 0.79328,-0.5087 1.22499,-0.67367 0.55957,-0.21449 1.01052,-0.57058 1.46285,-0.93491 0.37534,-0.30109 0.84141,-0.4757 1.13426,-0.86479 h 0.54444 c 1.10814,-0.68329 2.19976,-1.35699 3.3134,-2.04303 h 0.52657 c 0.2186,-0.22823 0.4372,-0.45783 0.66818,-0.6998 0.49494,0.0867 0.88403,-0.14437 1.26487,-0.40696 0.24472,-0.1691 0.49769,-0.36297 0.79328,-0.39184 0.29422,-0.0302 0.46745,-0.33133 0.77405,-0.28734 l -0.007,-0.003 z" /><g
       id="g1"
       transform="matrix(1.5177548,0,0,1.5177548,-58.83045,-69.263171)"
       style="stroke-width:0.658868"><path
         id="path34"
         class="cls-1"
         d="m 166.23658,139.49142 c -1.60914,0.0398 -3.21827,0.0871 -4.82741,0.11696 -3.21993,0.0605 -6.43987,0.1128 -9.6598,0.16672 -1.78912,0.0299 -3.57742,0.0663 -5.36655,0.0804 -3.66286,0.029 -7.32572,0.0332 -10.98858,0.0672 -5.35743,0.0506 -10.71569,-0.007 -16.07311,-0.0166 -3.01423,-0.005 -6.02929,-0.0539 -9.04352,-0.0979 -3.09634,-0.0448 -6.19268,-0.10202 -9.2882,-0.16589 -1.897785,-0.039 -3.794741,-0.10036 -5.692527,-0.15262 -0.02737,-0.0522 -0.01244,-0.0863 0.04396,-0.10285 0.189945,-0.009 0.37823,-0.002 0.568175,-0.004 0.4844,-0.0149 0.969629,0.0315 1.453199,-0.0265 2.409558,-0.0332 4.818283,-0.0755 7.227013,-0.0962 4.07593,-0.0357 8.15268,-0.0448 12.22861,-0.0879 7.60441,-0.0804 15.20883,-0.0514 22.81324,-0.0498 3.56664,0 7.13495,0.034 10.70159,0.0622 3.41485,0.0265 6.82888,0.0639 10.24456,0.10036 1.66554,0.0183 3.33191,0.0465 4.99662,0.0705 0.20902,0.063 0.42385,0.006 0.63453,0.034 0.0473,0.0224 0.0572,0.0564 0.029,0.10119 v 0 z" /><path
         id="path35"
         class="cls-1"
         d="m 166.22994,139.43917 c -0.21566,-0.0556 -0.45205,0.0564 -0.65775,-0.0821 h 2.86409 v 0.13354 h -1.37937 c -0.27206,-0.0722 -0.55491,0.0199 -0.82697,-0.0514 z" /><path
         id="path36"
         class="cls-1"
         d="m 95.867546,139.42009 c -0.188285,0.007 -0.376571,0.0124 -0.564856,0.0191 -0.272061,0.0713 -0.555733,-0.0207 -0.827793,0.0514 h -1.390991 c 0,-0.034 -0.0025,-0.0672 -0.0033,-0.10119 0.931475,-0.0191 1.862119,-0.0771 2.796912,-0.0307 0.02156,0.0174 0.02737,0.0324 0.01742,0.0448 -0.0091,0.0116 -0.01825,0.0166 -0.02654,0.0166 v 0 z" /><path
         id="path37"
         class="cls-1"
         d="m 95.867546,139.42009 c 0.005,-0.0199 0.0083,-0.0406 0.0091,-0.0614 0.495183,0 0.989536,-8.3e-4 1.484719,-0.002 -0.492694,0.14681 -0.996172,0.0307 -1.493843,0.063 z" /><path
         id="path38"
         class="cls-1"
         d="m 166.22994,139.43917 c 0.27621,0.002 0.55822,-0.0805 0.82697,0.0514 -0.27289,0 -0.54744,0 -0.82033,8.3e-4 -0.002,-0.0174 -0.004,-0.0348 -0.007,-0.0523 z" /><path
         id="path39"
         class="cls-1"
         d="m 94.474897,139.49059 c 0.268742,-0.13188 0.550756,-0.0489 0.827793,-0.0514 -0.0025,0.0174 -0.005,0.0348 -0.0066,0.0523 -0.273719,0 -0.547438,0 -0.821157,-8.3e-4 z" /></g><g
       id="g2"
       transform="translate(3.5182398,-1.2338156)"><path
         id="path75-2"
         class="cls-1"
         d="m 76.515882,134.37878 c 0,0 0.81508,1.78422 1.75247,3.04852 -1.74071,2.32921 -2.282913,3.34097 -2.282913,3.34097 0,0 1.042073,-0.61739 2.738083,-2.75165 1.69248,2.12983 2.73339,2.74573 2.73339,2.74573 0,0 -0.54104,-1.01027 -2.27939,-3.33505 0.93503,-1.26283 1.74775,-3.04261 1.74775,-3.04261 0,0 -1.25612,1.25396 -2.20175,2.4459 -0.9468,-1.19341 -2.20646,-2.45181 -2.20646,-2.45181 v 0 z" /><path
         id="path75"
         class="cls-1"
         d="m 191.06469,134.33634 c 0,0 0.85301,1.80791 1.83405,3.08902 -1.82173,2.36017 -2.38918,3.38535 -2.38918,3.38535 0,0 1.09058,-0.62559 2.86554,-2.7882 1.77125,2.15812 2.86059,2.78221 2.86059,2.78221 0,0 -0.56622,-1.02368 -2.38548,-3.37936 0.97857,-1.27961 1.82912,-3.08303 1.82912,-3.08303 0,0 -1.31461,1.27063 -2.30423,2.47839 -0.99088,-1.20925 -2.30918,-2.48438 -2.30918,-2.48438 z" /></g><text
       xml:space="preserve"
       style="font-size:7.05556px;line-height:1;font-family:'Source Sans 3';-inkscape-font-specification:'Source Sans 3, ';text-align:start;letter-spacing:-0.105833px;writing-mode:lr-tb;direction:ltr;text-anchor:start;fill:#0a3641;fill-opacity:1;stroke:none;stroke-width:0;stroke-linecap:round;stroke-opacity:1;paint-order:fill markers stroke"
       x="85.943054"
       y="138.1777"
       id="text1"><tspan
         sodipodi:role="line"
         id="tspan1"
         style="font-style:normal;font-variant:normal;font-weight:600;font-stretch:semi-condensed;font-size:7.05556px;font-family:'Barlow Semi Condensed';-inkscape-font-specification:'Barlow Semi Condensed,  Semi-Bold Semi-Condensed';letter-spacing:-0.105833px;fill:#0a3641;fill-opacity:1;stroke:none;stroke-width:0;stroke-opacity:1"
         x="85.943054"
         y="138.1777">Rainy Days © Pushing the Comfort Zone</tspan></text><text
       xml:space="preserve"
       style="font-style:normal;font-variant:normal;font-weight:600;font-stretch:semi-condensed;font-size:5.64444px;line-height:1;font-family:'Barlow Semi Condensed';-inkscape-font-specification:'Barlow Semi Condensed,  Semi-Bold Semi-Condensed';text-align:start;letter-spacing:0px;writing-mode:lr-tb;direction:ltr;text-anchor:start;fill:#0a3641;stroke-width:0;stroke-linecap:round;paint-order:fill markers stroke"
       x="106.12288"
       y="150.63402"
       id="text2"><tspan
         sodipodi:role="line"
         id="tspan2"
         style="font-style:normal;font-variant:normal;font-weight:normal;font-stretch:normal;font-family:'Source Sans 3';-inkscape-font-specification:'Source Sans 3, ';letter-spacing:0px;stroke-width:0"
         x="106.12288"
         y="150.63402">est. MMXXV by Jack Ets Sells.</tspan></text></g></svg>
