<?xml version="1.0" encoding="UTF-8" standalone="no"?>
<svg
   width="61.000004mm"
   height="115.81866mm"
   version="1.1"
   viewBox="0 0 61.000004 115.81868"
   id="svg44"
   sodipodi:docname="IPhone_1st_Gen.svg"
   inkscape:version="1.4.2 (f4327f4, 2025-05-13)"
   inkscape:export-filename="IPhone_1st_Gen.pdf"
   inkscape:export-xdpi="96"
   inkscape:export-ydpi="96"
   xmlns:inkscape="http://www.inkscape.org/namespaces/inkscape"
   xmlns:sodipodi="http://sodipodi.sourceforge.net/DTD/sodipodi-0.dtd"
   xmlns:xlink="http://www.w3.org/1999/xlink"
   xmlns="http://www.w3.org/2000/svg"
   xmlns:svg="http://www.w3.org/2000/svg"
   xmlns:rdf="http://www.w3.org/1999/02/22-rdf-syntax-ns#"
   xmlns:cc="http://creativecommons.org/ns#"
   xmlns:dc="http://purl.org/dc/elements/1.1/">
  <sodipodi:namedview
     id="namedview44"
     pagecolor="#ffffff"
     bordercolor="#000000"
     borderopacity="0.25"
     inkscape:showpageshadow="2"
     inkscape:pageopacity="0.0"
     inkscape:pagecheckerboard="0"
     inkscape:deskcolor="#d1d1d1"
     inkscape:document-units="mm"
     inkscape:zoom="1.02702"
     inkscape:cx="17.526436"
     inkscape:cy="99.803314"
     inkscape:window-width="3440"
     inkscape:window-height="1417"
     inkscape:window-x="1912"
     inkscape:window-y="-8"
     inkscape:window-maximized="1"
     inkscape:current-layer="svg44" />
  <metadata
     id="metadata1">
    <rdf:RDF>
      <cc:Work
         rdf:about="">
        <dc:format>image/svg+xml</dc:format>
        <dc:type
           rdf:resource="http://purl.org/dc/dcmitype/StillImage" />
      </cc:Work>
    </rdf:RDF>
  </metadata>
  <defs
     id="defs28">
    <linearGradient
       id="linearGradient2230-8">
      <stop
         stop-color="#afb9bb"
         offset="0"
         id="stop1" />
      <stop
         stop-color="#afb9bb"
         stop-opacity="0"
         offset="1"
         id="stop2" />
    </linearGradient>
    <linearGradient
       id="linearGradient2149">
      <stop
         stop-color="#060e11"
         offset="0"
         id="stop3" />
      <stop
         stop-color="#2e3235"
         offset=".33000001"
         id="stop4" />
      <stop
         stop-color="#060e11"
         offset="1"
         id="stop5" />
    </linearGradient>
    <linearGradient
       id="linearGradient1610"
       x1="54.24403"
       x2="5.1888747"
       y1="20.071564"
       y2="93.607803"
       gradientTransform="matrix(1.0347227,0,0,1.0347227,-0.25019,-0.7251794)"
       gradientUnits="userSpaceOnUse">
      <stop
         stop-color="#475156"
         offset="0"
         id="stop6" />
      <stop
         stop-color="#26292c"
         offset="1"
         id="stop7" />
    </linearGradient>
    <clipPath
       id="clipPath1775">
      <rect
         x="91.89238"
         y="39.961075"
         width="40.848045"
         height="8.3968935"
         ry="4.1984468"
         color="#000000"
         fill="#1c2024"
         id="rect7" />
    </clipPath>
    <filter
       id="filter1852"
       x="-0.050132233"
       y="-0.25218548"
       width="1.1002645"
       height="1.504371"
       color-interpolation-filters="sRGB">
      <feGaussianBlur
         stdDeviation="0.90203742"
         id="feGaussianBlur7" />
    </filter>
    <radialGradient
       id="radialGradient2006"
       cx="30.349352"
       cy="41.904324"
       r="26.174889"
       gradientTransform="matrix(-1.5301418,0,0,-2.446517,99.668965,115.41423)"
       gradientUnits="userSpaceOnUse">
      <stop
         stop-color="#222c32"
         offset="0"
         id="stop8" />
      <stop
         offset="1"
         id="stop9" />
    </radialGradient>
    <linearGradient
       id="linearGradient2071"
       x1="146.45949"
       x2="146.45949"
       y1="405.19775"
       y2="391.36792"
       gradientTransform="matrix(0.26458333,0,0,0.26458333,-23.417731,6.596933e-5)"
       gradientUnits="userSpaceOnUse">
      <stop
         stop-color="#818284"
         offset="0"
         id="stop10" />
      <stop
         stop-color="#424446"
         offset="1"
         id="stop11" />
    </linearGradient>
    <linearGradient
       id="linearGradient2098"
       x1="39.604816"
       x2="49.162888"
       y1="2.3966236"
       y2="2.3966236"
       gradientTransform="matrix(1.0347227,0,0,1.0347227,-0.04278,-1.1879878)"
       gradientUnits="userSpaceOnUse">
      <stop
         stop-color="#060e11"
         offset="0"
         id="stop12" />
      <stop
         stop-color="#4f575b"
         offset=".33000001"
         id="stop13" />
      <stop
         stop-color="#4f575b"
         offset=".67000002"
         id="stop14" />
      <stop
         stop-color="#060e11"
         offset="1"
         id="stop15" />
    </linearGradient>
    <linearGradient
       id="linearGradient2098-3"
       x1="39.604816"
       x2="40.960804"
       y1="2.3966236"
       y2="2.3966236"
       gradientTransform="matrix(1.0347227,0,0,1.0347227,-29.181137,-3.7717)"
       gradientUnits="userSpaceOnUse"
       xlink:href="#linearGradient2149" />
    <linearGradient
       id="linearGradient2098-3-4"
       x1="39.604816"
       x2="40.960804"
       y1="2.3966236"
       y2="2.3966236"
       gradientTransform="matrix(0,1.0347227,-1.0347227,0,3.7717,-20.163827)"
       gradientUnits="userSpaceOnUse"
       xlink:href="#linearGradient2149" />
    <linearGradient
       id="linearGradient2222"
       x1="32.607929"
       x2="32.607929"
       y1="110.53413"
       y2="2.7710581"
       gradientUnits="userSpaceOnUse"
       gradientTransform="matrix(1.0347227,0,0,1.0347227,-0.04278,-0.7251794)">
      <stop
         stop-color="#cfdadb"
         offset="0"
         id="stop16" />
      <stop
         stop-color="#dfe7eb"
         offset="1"
         id="stop17" />
    </linearGradient>
    <linearGradient
       id="linearGradient2232-4"
       x1="53.644272"
       x2="65.947395"
       y1="70.336662"
       y2="-6.0617752"
       gradientTransform="matrix(-1,0,0,1,59.332812,0.6501095)"
       gradientUnits="userSpaceOnUse"
       xlink:href="#linearGradient2230-8" />
    <linearGradient
       id="linearGradient2288"
       x1="53.644272"
       x2="65.947395"
       y1="70.336662"
       y2="-6.0617752"
       gradientUnits="userSpaceOnUse"
       xlink:href="#linearGradient2230-8" />
    <linearGradient
       id="linearGradient2298"
       x1="7.5537052"
       x2="7.5537052"
       y1="111.26684"
       y2="112.34259"
       gradientTransform="matrix(1.0439485,0,0,1.0347227,36.96135,-0.7251794)"
       gradientUnits="userSpaceOnUse">
      <stop
         stop-color="#aab5b7"
         offset="0"
         id="stop18" />
      <stop
         stop-color="#aab5b7"
         stop-opacity="0"
         offset="1"
         id="stop19" />
    </linearGradient>
    <radialGradient
       id="radialGradient2363"
       cx="29.716454"
       cy="0.64333385"
       r="25.377003"
       gradientTransform="matrix(1.0347227,0,0,0.35464614,-0.04278,1.3567903)"
       gradientUnits="userSpaceOnUse">
      <stop
         stop-color="#ebf2f7"
         offset="0"
         id="stop20" />
      <stop
         stop-color="#ebf2f7"
         offset=".78910869"
         id="stop21" />
      <stop
         stop-color="#ebf2f7"
         stop-opacity=".42718446"
         offset="1"
         id="stop22" />
    </radialGradient>
    <linearGradient
       id="linearGradient7304"
       x1="64.280914"
       x2="64.280914"
       y1="1.6939214"
       y2="111.79836"
       gradientUnits="userSpaceOnUse">
      <stop
         stop-color="#cacfd1"
         offset="0"
         id="stop23" />
      <stop
         stop-color="#b7bec0"
         offset=".80370462"
         id="stop24" />
      <stop
         stop-color="#7c8284"
         offset=".80485159"
         id="stop25" />
      <stop
         stop-color="#3d4549"
         offset="1"
         id="stop26" />
    </linearGradient>
    <clipPath
       id="clipPath7318">
      <path
         d="m 10.541475,1.0464477 c -5.5969446,0 -10.1027421,4.5057981 -10.1027421,10.1027423 v 91.38098 c 0,5.59694 4.5057975,10.10275 10.1027421,10.10275 h 7.921997 c 0.413126,0 0.781136,-0.31316 1.800924,-0.31316 h 18.903756 c 1.019789,0 1.387798,0.31316 1.800924,0.31316 h 7.922514 c 5.596945,0 10.102741,-4.50581 10.102741,-10.10275 V 11.14919 c 0,-5.5969442 -4.505796,-10.1027423 -10.102741,-10.1027423 H 14.382584 c -0.413126,0 -0.781135,0.2335775 -1.800923,0.2335775 -1.019788,0 -1.387798,-0.2335775 -1.800924,-0.2335775 z m -0.343131,0.4252971 h 38.634852 c 5.311913,0 9.588561,4.2766472 9.588561,9.5885612 V 102.6666 c 0,5.31191 -4.276648,9.58804 -9.588561,9.58804 H 10.198344 c -5.311915,0 -9.58804534,-4.27613 -9.58804534,-9.58804 V 11.060306 c 0,-5.311914 4.27613034,-9.5885612 9.58804534,-9.5885612 z"
         color="#000000"
         fill="#557c87"
         id="path26" />
    </clipPath>
    <filter
       id="filter7330"
       x="-0.020734839"
       y="-0.010880718"
       width="1.0414697"
       height="1.0217614"
       color-interpolation-filters="sRGB">
      <feGaussianBlur
         stdDeviation="0.42535518"
         id="feGaussianBlur26" />
    </filter>
    <linearGradient
       id="linearGradient7442"
       x1="52.585938"
       x2="52.585938"
       y1="6.4397874"
       y2="90.378853"
       gradientTransform="matrix(-1,0,0,1,59.382859,0.6501095)"
       gradientUnits="userSpaceOnUse">
      <stop
         stop-color="#afb9bb"
         stop-opacity=".71844661"
         offset="0"
         id="stop27" />
      <stop
         stop-color="#afb9bb"
         stop-opacity="0"
         offset="1"
         id="stop28" />
    </linearGradient>
    <linearGradient
       id="linearGradient7442-9"
       x1="52.585938"
       x2="52.585938"
       y1="6.4397874"
       y2="90.378853"
       gradientTransform="translate(0.0500491)"
       gradientUnits="userSpaceOnUse"
       xlink:href="#linearGradient2230-8" />
    <clipPath
       id="clipPath7524">
      <path
         d="m 10.541476,1.0464464 c -5.596945,0 -10.1027431,4.5057981 -10.1027431,10.1027426 v 91.380991 c 0,5.59694 4.5057981,10.10274 10.1027431,10.10274 h 7.921997 c 0.413126,0 0.781135,-0.31307 1.800923,-0.31307 h 18.903756 c 1.019789,0 1.387798,0.31307 1.800924,0.31307 h 7.922514 c 5.596945,0 10.102741,-4.5058 10.102741,-10.10274 V 11.149189 c 0,-5.5969445 -4.505796,-10.1027426 -10.102741,-10.1027426 H 14.382585 c -0.413126,0 -0.781136,0.2335775 -1.800924,0.2335775 -1.019788,0 -1.387798,-0.2335775 -1.800924,-0.2335775 z"
         color="#000000"
         fill="none"
         id="path28" />
    </clipPath>
    <filter
       id="filter7552"
       x="-0.032761349"
       y="-0.018935966"
       width="1.0655227"
       height="1.0378719"
       color-interpolation-filters="sRGB">
      <feGaussianBlur
         stdDeviation="0.76658571"
         id="feGaussianBlur28" />
    </filter>
  </defs>
  <rect
     x="40.937233"
     y="0"
     width="9.8899527"
     height="2.583708"
     ry="0.18190104"
     color="#000000"
     fill="url(#linearGradient2098)"
     id="rect28"
     style="fill:url(#linearGradient2098);stroke-width:0.999999"
     rx="0.18190104" />
  <rect
     transform="rotate(90)"
     x="11.798864"
     y="-2.5837162"
     width="5.0818658"
     height="2.583708"
     ry="0.18190104"
     color="#000000"
     fill="url(#linearGradient2098-3)"
     id="rect29"
     style="fill:url(#linearGradient2098-3);stroke-width:0.999999"
     rx="0.18190104" />
  <path
     d="m 2.58371,21.004397 v 5.75805 c 0,0.104273 -0.0839,1.654783 -0.18822,1.654783 H 0.62378 C 0.11956,28.41723 0,27.441422 0,26.762447 v -5.75805 C 0,20.900125 0.0839,20.81618 0.18822,20.81618 h 2.20727 c 0.10427,0 0.18822,0.08394 0.18822,0.188217 z"
     color="#000000"
     fill="url(#linearGradient2098-3-4)"
     id="path29"
     style="fill:url(#linearGradient2098-3-4);stroke-width:0.999999" />
  <path
     d="m 2.58371,40.715233 v -5.75805 C 2.58371,34.85291 2.49981,33.3024 2.39549,33.3024 H 0.62378 C 0.11956,33.3024 0,34.278208 0,34.957183 v 5.75805 c 0,0.104272 0.0839,0.188217 0.18822,0.188217 h 2.20727 c 0.10427,0 0.18822,-0.08394 0.18822,-0.188217 z"
     color="#000000"
     fill="#060e11"
     id="path30"
     style="stroke-width:0.999999" />
  <path
     d="m 10.86473,0.3576033 c -5.79129,0 -10.45354,4.6622514 -10.45354,10.4535377 v 94.553969 c 0,5.7913 4.66225,10.45354 10.45354,10.45354 h 8.19707 c 0.42747,0 0.80826,-0.32395 1.86346,-0.32395 H 40.4854 c 1.055201,0 1.435988,0.32395 1.863458,0.32395 h 8.197607 c 5.79129,0 10.45354,-4.66224 10.45354,-10.45354 V 10.811141 c 0,-5.7912863 -4.66225,-10.4535377 -10.45354,-10.4535377 H 14.83921 c -0.42747,0 -0.80826,0.241688 -1.86345,0.241688 -1.0552,0 -1.43599,-0.241688 -1.86346,-0.241688 z"
     color="#000000"
     fill="#182326"
     id="path31"
     style="stroke-width:0.264583" />
  <path
     d="m 10.541476,1.0464464 c -5.596945,0 -10.1027431,4.5057981 -10.1027431,10.1027426 v 91.380991 c 0,5.59694 4.5057981,10.10274 10.1027431,10.10274 h 7.921997 c 0.413126,0 0.781135,-0.31307 1.800923,-0.31307 h 18.903757 c 1.019789,0 1.387798,0.31307 1.800923,0.31307 h 7.922514 c 5.596946,0 10.102742,-4.5058 10.102742,-10.10274 V 11.149189 c 0,-5.5969445 -4.505796,-10.1027426 -10.102742,-10.1027426 H 14.382585 c -0.413126,0 -0.781136,0.2335775 -1.800924,0.2335775 -1.019788,0 -1.387798,-0.2335775 -1.800924,-0.2335775 z"
     clip-path="url(#clipPath7318)"
     color="#000000"
     fill="none"
     filter="url(#filter7330)"
     stroke="url(#linearGradient7304)"
     stroke-linejoin="round"
     stroke-width="0.386577"
     id="path32"
     style="stroke:url(#linearGradient7304)"
     transform="matrix(1.0347227,0,0,1.0347227,-0.04277,-0.7251793)" />
  <g
     clip-path="url(#clipPath7524)"
     fill-rule="evenodd"
     filter="url(#filter7552)"
     opacity="0.99"
     id="g34"
     transform="matrix(1.0347227,0,0,1.0347227,-0.04277,-0.7251793)"
     style="stroke-width:0.966442">
    <path
       d="m 4.680256,6.7591675 c 0,0 -3.042709,0.79375 -3.042709,5.8208345 v 61.965974 c 0,10.243109 0.215546,16.837986 0.355862,21.655514 0.140317,4.81753 0.140317,6.31424 0.982218,7.0626 0.841899,0.74835 1.704629,-96.5049225 1.704629,-96.5049225 z"
       fill="url(#linearGradient7442)"
       id="path33"
       style="fill:url(#linearGradient7442);stroke-width:0.966442" />
    <path
       d="m 54.75265,6.109058 c 0,0 3.04271,0.79375 3.04271,5.820835 v 61.965973 c 0,10.243114 -0.215546,16.837994 -0.355863,21.655514 -0.140316,4.81753 -0.140316,6.31424 -0.982217,7.0626 -0.841899,0.74835 -1.70463,-96.504922 -1.70463,-96.504922 z"
       fill="url(#linearGradient7442-9)"
       id="path34"
       style="fill:url(#linearGradient7442-9);stroke-width:0.966442" />
  </g>
  <g
     transform="matrix(1.0347227,0,0,1.0347227,0.00901,-0.7251793)"
     fill-rule="evenodd"
     id="g36"
     style="stroke-width:0.966442">
    <path
       d="m 54.702603,6.1090584 c 0,0 3.042709,0.79375 3.042709,5.8208336 v 61.965975 c 0,10.243106 -0.215546,16.837983 -0.355862,21.655513 -0.140317,4.81753 -0.140317,6.31424 -0.982218,7.0626 -0.841899,0.74835 -1.704629,-96.5049216 -1.704629,-96.5049216 z"
       fill="url(#linearGradient2288)"
       id="path35"
       style="fill:url(#linearGradient2288);stroke-width:0.966442" />
    <path
       d="m 4.6302088,6.7591675 c 0,0 -3.042709,0.79375 -3.042709,5.8208345 v 61.965974 c 0,10.243109 0.215546,16.837986 0.355862,21.655514 0.140317,4.81753 0.140317,6.31424 0.982218,7.0626 0.841899,0.74835 1.704629,-96.5049225 1.704629,-96.5049225 z"
       fill="url(#linearGradient2232-4)"
       id="path36"
       style="fill:url(#linearGradient2232-4);stroke-width:0.966442" />
  </g>
  <rect
     x="2.7238071"
     y="2.4585872"
     width="55.963413"
     height="111.25909"
     ry="7.7721357"
     color="#000000"
     fill="url(#linearGradient2222)"
     id="rect36"
     style="fill:url(#linearGradient2222);stroke-width:0.999999"
     rx="7.7721357" />
  <path
     d="m 4.61757,111.2838 c 0,0 1.58695,2.47985 5.83496,2.92752 -4.56539,0 -7.12862,-2.17786 -7.12862,-2.17786 0.97655,0.91953 3.00811,3.17349 8.67044,3.17349 h 37.422325 c 5.66234,0 7.69389,-2.25396 8.67045,-3.17349 0,0 -2.56378,2.17786 -7.12917,2.17786 4.24802,-0.44767 5.83497,-2.92752 5.83497,-2.92752 0,0 -2.1972,2.80668 -6.81142,2.80668 H 11.42898 c -4.61422,0 -6.81141,-2.80668 -6.81141,-2.80668 z"
     fill="url(#linearGradient2298)"
     fill-rule="evenodd"
     id="path37"
     style="fill:url(#linearGradient2298);stroke-width:0.999999" />
  <path
     d="m 12.28403,1.0447023 c -5.57807,0 -7.83668,2.5323754 -7.83668,2.5323754 0,0 2.78904,-1.3351644 6.15984,-1.3351644 h 40.196655 c 3.3708,0 6.15983,1.3351644 6.15983,1.3351644 0,0 -2.2586,-2.5323754 -7.83668,-2.5323754 H 21.03131 Z"
     fill="url(#radialGradient2363)"
     fill-rule="evenodd"
     id="path38"
     style="fill:url(#radialGradient2363);stroke-width:0.999999" />
  <path
     d="m 12.25409,3.3177437 c -3.01835,0 -5.04795,0.618427 -6.53092,2.101402 -1.48298,1.482976 -2.10141,3.512573 -2.10141,6.5309223 v 92.276122 c 0,3.01834 0.61843,5.04793 2.10141,6.53091 1.48297,1.48298 3.51257,2.10141 6.53092,2.10141 h 36.902855 c 3.01835,0 5.04795,-0.61844 6.53092,-2.10141 1.48298,-1.48298 2.1014,-3.51257 2.1014,-6.53091 V 11.950068 c 0,-3.0183503 -0.61842,-5.0479463 -2.1014,-6.5309223 -1.48297,-1.482974 -3.51257,-2.101402 -6.53092,-2.101402 H 15.7206 Z"
     color="#000000"
     fill="url(#radialGradient2006)"
     id="path39"
     style="fill:url(#radialGradient2006);stroke-width:0.999999" />
  <g
     transform="matrix(1.0347227,0,0,1.0347227,13.57325,-0.7251793)"
     id="g40"
     style="stroke-width:0.966442">
    <circle
       cx="16.557348"
       cy="101.93579"
       r="5.261869"
       color="#000000"
       fill="#141315"
       id="circle39"
       style="stroke-width:0.966442" />
    <circle
       cx="16.557348"
       cy="101.93579"
       r="5.1626501"
       color="#000000"
       id="circle40"
       style="stroke-width:0.966442" />
    <path
       d="m 21.566602,103.53277 a 15.151656,15.151656 0 0 1 -5.011581,0.87074 15.151656,15.151656 0 0 1 -5.006927,-0.87023 5.261869,5.261869 0 0 0 5.006927,3.66438 5.261869,5.261869 0 0 0 5.011581,-3.66489 z"
       color="#000000"
       fill="url(#linearGradient2071)"
       id="path40"
       style="fill:url(#linearGradient2071);stroke-width:0.966442" />
    <rect
       x="14.881866"
       y="100.21724"
       width="3.3509641"
       height="3.3084321"
       ry="0.73678207"
       color="#000000"
       fill="none"
       stroke="#a8acad"
       stroke-linejoin="round"
       stroke-width="0.289933"
       id="rect40"
       rx="0.73678207" />
  </g>
  <rect
     x="25.114019"
     y="10.214979"
     width="11.182984"
     height="2.2988207"
     ry="1.110839"
     color="#000000"
     fill="#1c2024"
     id="rect41"
     rx="1.110839"
     style="stroke-width:0.999999" />
  <path
     transform="matrix(0.27377038,0,0,0.27377038,-0.04339,-0.7251793)"
     d="m 97.984375,44.570312 c -3.788073,0 -7.259766,4.355469 -7.259766,4.355469 0.745833,2.783487 8.142609,3.783262 15.152341,4.103516 0.10937,0.005 0.21702,0.009 0.32617,0.01367 0.1671,0.0076 0.32631,0.01668 0.86719,0.03516 1.89349,0.06699 3.61383,0.07968 5.2461,0.07617 1.63226,0.0035 3.3526,-0.0092 5.24609,-0.07617 0.28796,-0.01019 0.577,-0.02275 0.86719,-0.03516 0.0651,-0.0029 0.32617,-0.01367 0.32617,-0.01367 7.00973,-0.320254 14.40651,-1.320029 15.15234,-4.103516 0,0 -3.47169,-4.355469 -7.25976,-4.355469 h -20.77149 z"
     clip-path="url(#clipPath1775)"
     fill="#8d8f90"
     fill-rule="evenodd"
     filter="url(#filter1852)"
     id="path41"
     style="stroke-width:0.966442" />
  <g
     transform="matrix(1.0347227,0,0,1.0347227,14.68473,-1.3225704)"
     id="g42"
     style="stroke-width:0.966442">
    <rect
       x="10.60634"
       y="11.657396"
       width="9.753644"
       height="1.2076651"
       ry="0.58356941"
       color="#000000"
       fill="#26292d"
       id="rect42"
       rx="0.58356941"
       style="stroke-width:0.966442" />
    <path
       d="m 11.210039,11.657374 c -0.334524,0 -0.603581,0.269574 -0.603581,0.604098 0,0.0358 0.0049,0.07033 0.01085,0.104386 0.04938,-0.284172 0.294005,-0.499711 0.592728,-0.499711 h 8.546248 c 0.298727,0 0.543864,0.215535 0.593246,0.499711 0.0059,-0.03405 0.01033,-0.06859 0.01033,-0.104386 0,-0.334524 -0.269057,-0.604098 -0.60358,-0.604098 z"
       color="#000000"
       fill="#0a0e12"
       id="path42"
       style="stroke-width:0.966442" />
  </g>
  <rect
     x="5.1188569"
     y="20.043324"
     width="50.758484"
     height="76.089622"
     color="#000000"
     stroke="url(#linearGradient1610)"
     stroke-linejoin="round"
     stroke-width="1.424"
     id="rect43"
     style="stroke:url(#linearGradient1610)" />
  <rect
     x="5.1188569"
     y="20.043322"
     width="50.758484"
     height="76.089622"
     color="#000000"
     id="rect44"
     style="stroke-width:0.999999" />
</svg>
